<svg width="30" height="30" viewBox="0 0 30 30" fill="none" xmlns="http://www.w3.org/2000/svg">
<path d="M22.1075 15.9762C22.1325 13.7175 23.3825 11.6925 25.3825 10.5925C24.2075 8.9425 22.3575 7.9675 20.3825 7.8925C18.2825 7.6925 16.2825 9.1675 15.2075 9.1675C14.1075 9.1675 12.4825 7.9175 10.7325 7.9425C8.4325 8.0175 6.3325 9.3175 5.2325 11.3675C2.9075 15.5425 4.6325 21.7175 6.8575 25.0675C7.9575 26.7175 9.2575 28.5425 10.9825 28.4925C12.6575 28.4425 13.2825 27.4175 15.3075 27.4175C17.3075 27.4175 17.9075 28.4925 19.6325 28.4675C21.4075 28.4425 22.5325 26.8175 23.5825 25.1425C24.3825 23.9175 24.9825 22.5675 25.3575 21.1425C22.9325 20.1175 22.1075 18.0675 22.1075 15.9762Z" fill="black"/>
<path d="M18.6075 5.9925C19.5825 4.8175 20.1075 3.2675 19.9325 1.7175C18.5075 1.8425 17.1575 2.5425 16.1575 3.6925C15.1825 4.8175 14.6325 6.3675 14.8325 7.8925C16.2575 7.9925 17.6325 7.1675 18.6075 5.9925Z" fill="black"/>
</svg>